<svg width="20" height="20" viewBox="0 0 20 20" fill="none" xmlns="http://www.w3.org/2000/svg">
<g clip-path="url(#clip0_1572_486)">
<path d="M1.36364 17.5038H4.54545V9.77652L0 6.36743V16.1402C0 16.8947 0.611364 17.5038 1.36364 17.5038Z" fill="#4285F4"/>
<path d="M15.4546 17.5038H18.6364C19.391 17.5038 20 16.8924 20 16.1402V6.36743L15.4546 9.77652" fill="#34A853"/>
<path d="M15.4546 3.8675V9.7766L20 6.3675V4.54932C20 2.86296 18.075 1.9016 16.7273 2.91296" fill="#FBBC04"/>
<path d="M4.54541 9.77652V3.86743L9.99996 7.95834L15.4545 3.86743V9.77652L9.99996 13.8674" fill="#EA4335"/>
<path d="M0 4.54932V6.3675L4.54545 9.7766V3.8675L3.27273 2.91296C1.92273 1.9016 0 2.86296 0 4.54932" fill="#C5221F"/>
</g>
<defs>
<clipPath id="clip0_1572_486">
<rect width="20" height="20" fill="white"/>
</clipPath>
</defs>
</svg>
