<svg width="506" height="114" viewBox="0 0 506 114" fill="none" xmlns="http://www.w3.org/2000/svg">
<path d="M55.813 23.4246C60.8396 23.3668 64.2731 23.8259 69.0532 25.6776C77.1277 28.8792 83.6271 35.115 87.1596 43.0493C90.7768 51.1732 90.9462 60.4164 87.629 68.6673C84.3512 77.0559 77.8756 83.2778 69.6913 86.8595C64.7764 88.8953 61.0131 89.3425 55.819 89.4639C55.691 84.0929 55.7976 78.2856 55.7948 72.8799C60.5515 72.7749 64.6686 71.6006 68.185 68.2718C71.3606 65.2761 73.214 61.141 73.337 56.7777C73.4081 52.4217 71.7567 48.2137 68.7419 45.0683C65.1453 41.3419 60.8339 40.0355 55.7855 39.9418L55.813 23.4246Z" fill="#0B0B0B"/>
<path d="M26.199 43.8954C28.36 43.3051 30.5907 44.5778 31.1814 46.7385C31.7723 48.8993 30.4995 51.1297 28.3385 51.7207C26.1771 52.3118 23.946 51.039 23.3551 48.8779C22.7642 46.7168 24.0374 44.486 26.199 43.8954Z" fill="#0B0B0B" fill-opacity="0.55"/>
<path d="M26.4968 59.6971C28.7033 59.4615 30.6895 61.0422 30.9544 63.2448C31.2195 65.4475 29.665 67.4544 27.4656 67.7485C26.0168 67.9423 24.5756 67.3416 23.6936 66.176C22.8116 65.0107 22.6251 63.4608 23.2054 62.1191C23.7859 60.7777 25.0434 59.8524 26.4968 59.6971Z" fill="#0B0B0B" fill-opacity="0.44"/>
<path d="M46.927 82.0454C49.036 81.3436 51.3174 82.4703 52.0413 84.5719C52.7654 86.6734 51.662 88.9658 49.5677 89.7114C48.1936 90.2006 46.6625 89.9141 45.5583 88.9612C44.4541 88.0083 43.9468 86.5359 44.2301 85.1053C44.5132 83.6747 45.5429 82.5063 46.927 82.0454Z" fill="#0B0B0B" fill-opacity="0.84"/>
<path d="M48.3626 22.6759C49.7642 22.2789 51.2711 22.665 52.3086 23.6874C53.3461 24.7098 53.7546 26.2106 53.3779 27.6176C53.0012 29.0247 51.8977 30.1209 50.4881 30.4884C48.3403 31.0482 46.142 29.7751 45.5594 27.6334C44.977 25.4921 46.2271 23.2809 48.3626 22.6759Z" fill="#0B0B0B" fill-opacity="0.9"/>
<path d="M34.8234 30.2361C36.9927 29.8655 39.0601 31.2977 39.4751 33.4586C39.8901 35.6194 38.5004 37.7153 36.3483 38.1747C34.9162 38.4803 33.4307 37.9878 32.4649 36.8872C31.4993 35.7868 31.2041 34.2501 31.6934 32.8702C32.1827 31.4902 33.38 30.4825 34.8234 30.2361Z" fill="#0B0B0B" fill-opacity="0.66"/>
<path d="M33.526 73.7752C35.6673 73.1955 37.8757 74.4502 38.4733 76.5862C39.0709 78.7224 37.8344 80.9407 35.7031 81.5561C33.5464 82.1788 31.2957 80.9244 30.691 78.7631C30.0862 76.6016 31.3594 74.3617 33.526 73.7752Z" fill="#0B0B0B" fill-opacity="0.33"/>
<path d="M35.9926 53.0306C37.8739 52.322 39.9728 53.2792 40.6709 55.1644C41.369 57.0496 40.3997 59.1427 38.5103 59.8298C36.6361 60.5116 34.563 59.5518 33.8706 57.6817C33.1781 55.8117 34.1262 53.7338 35.9926 53.0306Z" fill="#0B0B0B" fill-opacity="0.78"/>
<path d="M46.3972 69.7264C47.6966 69.4966 49.018 69.9908 49.8476 71.0169C50.6769 72.0428 50.8836 73.4381 50.3869 74.6604C49.89 75.8824 48.7685 76.7383 47.4583 76.8947C45.5096 77.1275 43.7296 75.7674 43.4424 73.8264C43.1549 71.8851 44.4647 70.0679 46.3972 69.7264Z" fill="#0B0B0B" fill-opacity="0.8"/>
<path d="M39.4232 43.064C41.3856 42.808 43.1898 44.175 43.474 46.1329C43.7584 48.0909 42.4177 49.9144 40.4635 50.2271C39.1741 50.4335 37.8737 49.9295 37.0599 48.9082C36.2464 47.8869 36.046 46.5067 36.5355 45.2964C37.0248 44.086 38.1284 43.2329 39.4232 43.064Z" fill="#0B0B0B" fill-opacity="0.83"/>
<path d="M45.8662 36.0986C47.1032 35.6791 48.4704 35.9602 49.4416 36.8334C50.4128 37.7066 50.8369 39.0361 50.5508 40.3102C50.2647 41.5844 49.313 42.6051 48.0615 42.9793C46.1747 43.5437 44.1833 42.4927 43.5848 40.6166C42.9864 38.7407 44.0011 36.731 45.8662 36.0986Z" fill="#0B0B0B" fill-opacity="0.86"/>
<path d="M38.6897 62.753C40.5611 62.0912 42.6153 63.0677 43.2833 64.9366C43.9513 66.8056 42.9813 68.8625 41.1145 69.5367C39.2388 70.2137 37.1698 69.2385 36.4988 67.3609C35.8276 65.4835 36.8096 63.4179 38.6897 62.753Z" fill="#0B0B0B" fill-opacity="0.67"/>
<path d="M41.9301 107.15C43.5172 106.56 45.2833 107.356 45.8913 108.936C46.4995 110.516 45.7228 112.291 44.1496 112.917C43.1162 113.328 41.9414 113.152 41.0737 112.456C40.206 111.76 39.7793 110.651 39.9565 109.553C40.1339 108.455 40.8877 107.537 41.9301 107.15Z" fill="#0B0B0B" fill-opacity="0.2"/>
<path d="M2.48842 68.3753C4.11875 67.8586 5.85781 68.7686 6.3627 70.4021C6.86781 72.0359 5.94532 73.7682 4.30784 74.2613C2.68682 74.7497 0.975487 73.8386 0.47558 72.2215C-0.0243278 70.6042 0.874552 68.8866 2.48842 68.3753Z" fill="#0B0B0B" fill-opacity="0.15"/>
<path d="M40.8683 0.167858C42.4792 -0.385463 44.2329 0.474079 44.7822 2.08597C45.3317 3.69785 44.4675 5.44921 42.8541 5.99452C41.2465 6.53766 39.5022 5.67747 38.9549 4.07143C38.4076 2.46539 39.2633 0.719231 40.8683 0.167858Z" fill="#0B0B0B" fill-opacity="0.33"/>
<path d="M1.99322 39.7732C3.05693 39.3721 4.25493 39.59 5.10941 40.3395C5.96388 41.0893 6.33556 42.2487 6.0763 43.3552C5.81703 44.4618 4.96883 45.3356 3.87047 45.6278C2.28541 46.0492 0.648364 45.1544 0.14759 43.5927C-0.352967 42.0313 0.458623 40.3516 1.99322 39.7732Z" fill="#0B0B0B" fill-opacity="0.11"/>
<path d="M16.585 14.6857C18.2191 14.3576 19.8165 15.3921 20.1856 17.017C20.5546 18.6421 19.5607 20.2648 17.9451 20.6745C16.8634 20.9489 15.718 20.6152 14.953 19.8026C14.1882 18.9903 13.9239 17.8271 14.2629 16.764C14.6019 15.7009 15.4908 14.9055 16.585 14.6857Z" fill="#0B0B0B" fill-opacity="0.08"/>
<path d="M17.0269 93.0744C18.6256 92.5288 20.3647 93.3786 20.9168 94.9749C21.4689 96.5714 20.6261 98.3135 19.0319 98.872C17.4283 99.434 15.6734 98.5855 15.118 96.9796C14.5627 95.374 15.4187 93.6229 17.0269 93.0744Z" fill="#0B0B0B" fill-opacity="0.25"/>
<path d="M35.41 19.0222C36.5679 18.4849 37.9429 18.9769 38.4971 20.1268C39.0514 21.2768 38.5795 22.6585 37.4376 23.2293C36.684 23.6062 35.7858 23.5479 35.087 23.0769C34.3885 22.6059 33.9978 21.7953 34.0645 20.9554C34.1314 20.1156 34.6456 19.3769 35.41 19.0222Z" fill="#0B0B0B" fill-opacity="0.33"/>
<path d="M35.3505 89.6167C36.5002 89.0408 37.8992 89.5038 38.478 90.6518C39.057 91.7998 38.5971 93.1997 37.4504 93.7814C36.2997 94.3651 34.8935 93.9033 34.3126 92.7514C33.7319 91.5993 34.1969 90.1947 35.3505 89.6167Z" fill="#0B0B0B" fill-opacity="0.45"/>
<path d="M20.4744 74.6818C21.247 74.3225 22.1544 74.4143 22.8392 74.9211C23.5243 75.4279 23.8774 76.2686 23.7598 77.1125C23.6422 77.9562 23.0725 78.6683 22.275 78.9685C21.1043 79.409 19.7948 78.845 19.3104 77.692C18.8261 76.5388 19.3401 75.2093 20.4744 74.6818Z" fill="#0B0B0B" fill-opacity="0.22"/>
<path d="M20.444 33.9665C21.2117 33.5945 22.1218 33.674 22.8134 34.1736C23.505 34.6732 23.8663 35.5122 23.7541 36.3578C23.6421 37.2033 23.0746 37.9193 22.2767 38.2214C21.1166 38.6608 19.8161 38.1094 19.3253 36.9703C18.8347 35.8309 19.3275 34.5073 20.444 33.9665Z" fill="#0B0B0B" fill-opacity="0.35"/>
<path d="M15.0796 54.3C15.8433 53.9671 16.7272 54.0709 17.3931 54.5716C18.0587 55.0723 18.4035 55.8926 18.2952 56.7186C18.1869 57.5446 17.6424 58.2482 16.87 58.5605C15.6978 59.0343 14.3626 58.4786 13.8729 57.3133C13.3832 56.1479 13.9208 54.8055 15.0796 54.3Z" fill="#0B0B0B" fill-opacity="0.28"/>
<path d="M352.634 62.3417C363.491 50.1219 375.089 38.3301 386.279 26.4123C390.285 22.1452 395.617 23.3218 401.041 23.4589C401.19 26.3933 401.21 29.9299 401.129 32.8632C400.622 51.5903 401.915 71.1639 400.928 89.8015C395.991 89.9027 391.051 89.8995 386.114 89.7923C385.848 84.7251 386.042 77.3762 386.034 72.1672C386.106 64.4337 386.098 56.7001 386.014 48.967C379.372 55.2829 372.735 63.3542 366.288 70.0115C363.398 72.9967 359.945 77.1855 356.741 79.6721C353.96 79.754 351.019 79.6911 348.23 79.6786C344.539 76.3036 340.207 71.4146 336.721 67.668L319.203 48.934C319.513 60.2396 319.937 78.6535 319.247 89.8394C314.234 89.8701 309.221 89.8572 304.208 89.8003C303.241 70.1179 304.764 49.1589 304.127 29.3588C304.067 27.6025 304.039 25.1405 304.49 23.4899C307.279 23.4041 314.726 22.8659 316.568 24.4077C320.146 27.4006 324.748 32.5742 327.96 35.9882L352.634 62.3417Z" fill="black"/>
<path d="M124.812 23.1503C129.773 23.0346 136.761 22.7424 141.578 23.5247C146.204 27.7236 151.962 33.7956 156.459 38.294L187.511 69.5969C187.92 54.4692 186.977 38.6773 187.589 23.3986L202.649 23.3385C202.854 31.0112 203.431 87.4727 201.981 89.7747C181.259 90.021 185.793 90.2789 171.195 75.6068L139.653 43.7731C139.165 58.7113 140.241 75.051 139.291 89.7493L124.31 89.7686C124.072 87.2558 123.961 75.6983 124.145 73.5575C124.733 66.706 123.092 25.9339 124.812 23.1503Z" fill="black"/>
<path d="M449.415 23.4736C453.921 23.2886 458.93 22.7944 463.33 23.7106C464.563 24.0113 465.398 25.1932 466.046 26.1952C470.326 32.8404 474.461 39.6218 478.619 46.342L505.426 89.8114C499.76 89.8348 492.418 90.065 486.885 89.6514C484.394 85.8471 481.767 81.302 479.361 77.3768C467.288 77.1059 454.175 77.3768 442 77.3357C444.519 72.8179 447.175 68.3784 449.967 64.0231C452.776 64.0401 468.69 64.4685 470.382 63.5402L470.221 62.7095C465.619 55.5608 461.138 47.5117 456.512 40.166C453.804 43.888 450.721 49.3107 448.295 53.3213L435.097 75.1949C424.523 92.8164 427.969 89.9614 407.799 89.8042C410.068 85.49 413.554 80.0976 416.137 75.8648L431.152 51.3196L441.847 33.8993C443.516 31.1809 446.824 24.7961 449.415 23.4736Z" fill="black"/>
<path d="M214.832 23.4341L230.364 23.3281L230.334 50.7348C230.326 56.2981 230.013 62.1299 230.773 67.6416C230.983 69.1693 231.45 71.5495 232.569 72.6773C236.364 76.5001 247.639 75.5106 252.696 75.5021C257.508 75.4936 271.249 76.2571 274.453 72.4612C277.826 68.4659 276.399 31.0814 276.371 23.3954L292.039 23.3664L292.027 39.3054L292.055 62.6233C292.039 68.7017 292.015 80.4153 287.155 84.4944C277.709 92.4234 259.446 90.8305 247.852 90.9332C212.887 91.244 214.727 80.3725 214.729 51.5309C214.695 42.1653 214.73 32.7993 214.832 23.4341Z" fill="black"/>
</svg>
