<svg width="600" height="234" viewBox="0 0 600 234" fill="none" xmlns="http://www.w3.org/2000/svg">
<path d="M94.5988 60.8268C103.118 60.7288 108.938 61.507 117.04 64.6453C130.725 70.0719 141.741 80.641 147.729 94.0889C153.86 107.858 154.147 123.525 148.524 137.509C142.969 151.727 131.993 162.273 118.121 168.344C109.791 171.794 103.412 172.552 94.6091 172.758C94.3921 163.654 94.5727 153.811 94.5679 144.649C102.63 144.471 109.608 142.481 115.568 136.839C120.951 131.762 124.092 124.753 124.301 117.357C124.421 109.974 121.622 102.842 116.512 97.511C110.416 91.195 103.109 88.9809 94.5522 88.822L94.5988 60.8268Z" fill="#0B0B0B"/>
<path d="M44.4062 95.5212C48.0689 94.5206 51.8498 96.6778 52.8509 100.34C53.8524 104.002 51.6952 107.783 48.0325 108.784C44.3691 109.786 40.5874 107.629 39.5859 103.966C38.5845 100.303 40.7424 96.5221 44.4062 95.5212Z" fill="#0B0B0B" fill-opacity="0.55"/>
<path d="M44.9102 122.305C48.65 121.905 52.0165 124.584 52.4654 128.318C52.9148 132.051 50.28 135.453 46.5523 135.951C44.0967 136.28 41.6539 135.261 40.159 133.286C38.6641 131.311 38.348 128.684 39.3315 126.41C40.3154 124.136 42.4469 122.568 44.9102 122.305Z" fill="#0B0B0B" fill-opacity="0.44"/>
<path d="M79.5369 160.184C83.1115 158.994 86.9783 160.904 88.2052 164.466C89.4325 168.028 87.5624 171.913 84.0128 173.177C81.6838 174.006 79.0887 173.521 77.2171 171.906C75.3456 170.291 74.4858 167.795 74.966 165.37C75.4458 162.945 77.191 160.965 79.5369 160.184Z" fill="#0B0B0B" fill-opacity="0.84"/>
<path d="M81.9719 59.5579C84.3475 58.885 86.9015 59.5395 88.66 61.2724C90.4185 63.0053 91.1108 65.549 90.4724 67.9337C89.834 70.3185 87.9636 72.1766 85.5744 72.7995C81.9341 73.7483 78.2082 71.5904 77.2207 67.9605C76.2335 64.3311 78.3525 60.5834 81.9719 59.5579Z" fill="#0B0B0B" fill-opacity="0.9"/>
<path d="M59.0224 72.3699C62.6991 71.7419 66.2032 74.1692 66.9066 77.8317C67.6099 81.4942 65.2546 85.0466 61.6069 85.8251C59.1795 86.3431 56.6619 85.5084 55.0249 83.643C53.3883 81.778 52.8879 79.1733 53.7172 76.8344C54.5466 74.4955 56.5759 72.7876 59.0224 72.3699Z" fill="#0B0B0B" fill-opacity="0.66"/>
<path d="M56.8229 146.166C60.4522 145.184 64.1953 147.311 65.2081 150.931C66.221 154.552 64.1251 158.311 60.5127 159.354C56.8574 160.41 53.0427 158.284 52.0177 154.621C50.9927 150.957 53.1506 147.16 56.8229 146.166Z" fill="#0B0B0B" fill-opacity="0.33"/>
<path d="M61.005 111.006C64.1937 109.804 67.7511 111.427 68.9343 114.622C70.1175 117.817 68.4746 121.365 65.2723 122.53C62.0957 123.685 58.582 122.058 57.4084 118.889C56.2347 115.719 57.8416 112.197 61.005 111.006Z" fill="#0B0B0B" fill-opacity="0.78"/>
<path d="M78.6387 139.303C80.841 138.914 83.0808 139.751 84.4868 141.49C85.8925 143.229 86.2427 145.594 85.4009 147.666C84.5588 149.737 82.6578 151.188 80.4372 151.453C77.1342 151.847 74.1173 149.542 73.6305 146.252C73.1433 142.962 75.3633 139.882 78.6387 139.303Z" fill="#0B0B0B" fill-opacity="0.8"/>
<path d="M66.8184 94.1123C70.1445 93.6784 73.2026 95.9953 73.6842 99.3138C74.1663 102.632 71.8938 105.723 68.5817 106.253C66.3963 106.603 64.1921 105.749 62.8129 104.018C61.434 102.287 61.0944 99.9474 61.9241 97.8959C62.7534 95.8444 64.6238 94.3986 66.8184 94.1123Z" fill="#0B0B0B" fill-opacity="0.83"/>
<path d="M77.7399 82.3063C79.8365 81.5953 82.1537 82.0718 83.7999 83.5518C85.446 85.0317 86.1648 87.2851 85.6799 89.4445C85.1949 91.6043 83.5818 93.3342 81.4606 93.9685C78.2627 94.9251 74.8874 93.1437 73.8731 89.9639C72.8588 86.7844 74.5787 83.3781 77.7399 82.3063Z" fill="#0B0B0B" fill-opacity="0.86"/>
<path d="M65.5772 127.485C68.749 126.363 72.2308 128.018 73.3629 131.186C74.4951 134.354 72.8512 137.84 69.687 138.983C66.5078 140.13 63.0011 138.477 61.8638 135.295C60.7261 132.113 62.3906 128.612 65.5772 127.485Z" fill="#0B0B0B" fill-opacity="0.67"/>
<path d="M71.0684 202.732C73.7582 201.732 76.7517 203.082 77.7822 205.76C78.813 208.437 77.4966 211.446 74.8302 212.507C73.0787 213.203 71.0875 212.905 69.6168 211.726C68.1462 210.546 67.4229 208.667 67.7232 206.806C68.0239 204.945 69.3015 203.389 71.0684 202.732Z" fill="#0B0B0B" fill-opacity="0.2"/>
<path d="M4.21904 137.014C6.98231 136.138 9.92987 137.681 10.7856 140.449C11.6417 143.218 10.0782 146.155 7.3028 146.99C4.55531 147.818 1.65474 146.274 0.807441 143.533C-0.0398597 140.792 1.48367 137.881 4.21904 137.014Z" fill="#0B0B0B" fill-opacity="0.15"/>
<path d="M69.2675 21.4076C71.9977 20.4697 74.9702 21.9266 75.9012 24.6586C76.8326 27.3906 75.3678 30.359 72.6332 31.2832C69.9085 32.2038 66.9521 30.7459 66.0244 28.0238C65.0967 25.3017 66.5472 22.3421 69.2675 21.4076Z" fill="#0B0B0B" fill-opacity="0.33"/>
<path d="M3.37833 88.5353C5.18123 87.8555 7.21174 88.2248 8.66001 89.4952C10.1083 90.7659 10.7382 92.7311 10.2988 94.6064C9.85937 96.4821 8.42175 97.9632 6.56011 98.4583C3.87357 99.1726 1.09892 97.656 0.250153 95.0091C-0.598249 92.3626 0.777328 89.5157 3.37833 88.5353Z" fill="#0B0B0B" fill-opacity="0.11"/>
<path d="M28.1097 46.014C30.8792 45.4579 33.5867 47.2113 34.2123 49.9654C34.8378 52.7198 33.1531 55.4701 30.4148 56.1646C28.5815 56.6296 26.6402 56.064 25.3435 54.6868C24.0472 53.31 23.5993 51.3385 24.1739 49.5366C24.7484 47.7347 26.2551 46.3865 28.1097 46.014Z" fill="#0B0B0B" fill-opacity="0.08"/>
<path d="M28.8602 178.876C31.5699 177.952 34.5175 179.392 35.4532 182.097C36.389 184.803 34.9606 187.756 32.2586 188.703C29.5405 189.655 26.5661 188.217 25.6248 185.495C24.6836 182.774 26.1344 179.806 28.8602 178.876Z" fill="#0B0B0B" fill-opacity="0.25"/>
<path d="M60.0176 53.3637C61.9802 52.453 64.3106 53.287 65.2501 55.2361C66.1895 57.1851 65.3896 59.527 63.4542 60.4945C62.177 61.1332 60.6545 61.0345 59.4702 60.2361C58.2863 59.4378 57.624 58.0639 57.7371 56.6404C57.8505 55.217 58.722 53.9649 60.0176 53.3637Z" fill="#0B0B0B" fill-opacity="0.33"/>
<path d="M59.9165 173.015C61.8651 172.039 64.2363 172.823 65.2173 174.769C66.1986 176.715 65.4192 179.088 63.4757 180.074C61.5252 181.063 59.1419 180.28 58.1573 178.328C57.1731 176.375 57.9612 173.994 59.9165 173.015Z" fill="#0B0B0B" fill-opacity="0.45"/>
<path d="M34.7033 147.703C36.0128 147.094 37.5506 147.249 38.7114 148.108C39.8726 148.967 40.471 150.392 40.2717 151.823C40.0723 153.253 39.1068 154.459 37.7551 154.968C35.7708 155.715 33.5513 154.759 32.7304 152.805C31.9095 150.85 32.7807 148.597 34.7033 147.703Z" fill="#0B0B0B" fill-opacity="0.22"/>
<path d="M34.651 78.6928C35.9521 78.0622 37.4947 78.1969 38.6669 79.0437C39.8391 79.8905 40.4514 81.3125 40.2613 82.7459C40.0715 84.1789 39.1097 85.3924 37.7572 85.9044C35.7909 86.6492 33.5868 85.7146 32.7549 83.7839C31.9234 81.8528 32.7586 79.6094 34.651 78.6928Z" fill="#0B0B0B" fill-opacity="0.35"/>
<path d="M25.5581 113.156C26.8525 112.592 28.3507 112.768 29.4792 113.616C30.6074 114.465 31.1918 115.855 31.0082 117.255C30.8247 118.655 29.9018 119.848 28.5926 120.377C26.6058 121.18 24.3429 120.238 23.5129 118.263C22.6828 116.288 23.594 114.013 25.5581 113.156Z" fill="#0B0B0B" fill-opacity="0.28"/>
<path d="M215.322 90.9322C220.904 82.4124 229.424 78.1525 240.881 78.1525C250.429 78.1525 258.068 80.9435 263.797 86.5254C270.554 92.8418 273.932 101.802 273.932 113.407V159.017C273.932 160.339 273.345 161 272.17 161H259.17C257.994 161 257.407 160.339 257.407 159.017V116.492C257.407 109.147 255.644 103.492 252.119 99.5254C248.593 95.4124 243.599 93.3559 237.136 93.3559C222.887 93.3559 215.763 101.362 215.763 117.373V159.017C215.763 160.339 215.249 161 214.22 161H201.22C200.045 161 199.458 160.339 199.458 159.017V81.8983C199.458 80.5763 200.045 79.9152 201.22 79.9152H202.322C209.814 79.9152 214.147 83.5876 215.322 90.9322ZM321.174 163.203C310.01 163.203 301.344 160.119 295.174 153.949C288.417 147.045 285.039 136.763 285.039 123.102V81.8983C285.039 80.5763 285.626 79.9152 286.801 79.9152H287.903C296.864 79.9152 301.344 84.983 301.344 95.1186V124.864C301.344 132.356 303.033 138.085 306.412 142.051C309.937 146.017 314.858 148 321.174 148C334.395 148 341.005 140.508 341.005 125.525V81.8983C341.005 80.5763 341.592 79.9152 342.768 79.9152H343.869C352.977 79.9152 357.53 84.983 357.53 95.1186V124.203C357.53 135.661 354.886 144.768 349.598 151.525C343.282 159.311 333.807 163.203 321.174 163.203ZM384.584 90.7119C390.019 82.339 398.245 78.1525 409.262 78.1525C422.188 78.1525 431.516 83.1469 437.245 93.1356C444.149 83.1469 453.55 78.1525 465.448 78.1525C475.29 78.1525 483.075 80.9435 488.804 86.5254C495.267 92.6949 498.499 101.655 498.499 113.407V159.017C498.499 160.339 497.911 161 496.736 161H483.957C482.781 161 482.194 160.339 482.194 159.017V116.271C482.194 100.994 475.657 93.3559 462.584 93.3559C448.776 93.3559 441.872 101.288 441.872 117.153V159.017C441.872 160.339 441.284 161 440.109 161H427.109C425.934 161 425.346 160.339 425.346 159.017V116.271C425.346 100.994 418.883 93.3559 405.957 93.3559C392.002 93.3559 385.024 101.288 385.024 117.153V159.017C385.024 160.339 384.51 161 383.482 161H370.482C369.307 161 368.719 160.339 368.719 159.017V81.6779C368.719 80.5028 369.307 79.9152 370.482 79.9152H371.584C378.781 79.9152 383.115 83.5141 384.584 90.7119ZM571.731 149.542C565.561 158.503 556.601 162.983 544.849 162.983C533.832 162.983 524.945 159.311 518.188 151.966C510.697 144.034 506.951 133.531 506.951 120.458C506.951 109 510.036 99.3785 516.205 91.5932C523.55 82.4859 533.318 77.9322 545.51 77.9322C557.556 77.9322 566.589 82.1921 572.612 90.7119C573.787 83.5141 578.047 79.9152 585.392 79.9152H586.493C587.522 79.9152 588.036 80.5763 588.036 81.8983V159.017C588.036 160.339 587.522 161 586.493 161H573.493C572.318 161 571.731 160.339 571.731 159.017V149.542ZM547.273 147.559C554.912 147.559 560.861 145.209 565.121 140.508C569.527 135.661 571.731 128.977 571.731 120.458C571.731 111.35 569.307 104.446 564.46 99.7457C560.2 95.6328 554.691 93.5763 547.934 93.5763C541.618 93.5763 536.33 95.4859 532.07 99.3051C526.635 104.299 523.917 111.35 523.917 120.458C523.917 128.537 526.047 135.073 530.307 140.068C534.567 145.062 540.222 147.559 547.273 147.559Z" fill="black"/>
</svg>
