<svg width="37" height="37" viewBox="0 0 37 37" fill="none" xmlns="http://www.w3.org/2000/svg">
<g clip-path="url(#clip0_1628_1374)" filter="url(#filter0_ii_1628_1374)">
<path d="M35.7624 19.0802C35.7629 19.1279 35.7565 19.1754 35.7435 19.2212C35.7406 19.2434 35.7352 19.2653 35.7272 19.2862C35.7299 19.2889 35.7272 19.2916 35.7245 19.2944C35.7198 19.3141 35.7126 19.3333 35.7032 19.3513C35.6918 19.3794 35.6783 19.4066 35.6626 19.4326C35.5983 19.5544 35.4985 19.6537 35.3764 19.7172L34.1233 20.4273L34.0152 20.4897L32.681 21.2432L32.3731 21.4166L26.5617 24.7125L26.4485 24.7775L24.2339 26.0325L23.9585 26.187L23.6858 26.3415L23.5479 26.4201C23.502 26.4445 23.4536 26.4716 23.4049 26.4987C23.3995 26.5014 23.3968 26.5041 23.3914 26.5068C23.2917 26.5596 23.1854 26.5988 23.0754 26.6233H23.0727C22.9396 26.6583 22.8025 26.6756 22.6648 26.6748C22.4118 26.6769 22.1618 26.6194 21.935 26.5068C21.8972 26.4851 21.8594 26.4634 21.8215 26.4445C21.808 26.4363 21.7945 26.4282 21.7783 26.4201L20.0446 25.4362L19.8097 25.3034L19.6421 25.2085L19.607 25.1895L19.4802 25.1163L19.4613 25.1055L19.4045 25.073L19.364 25.0486L19.3207 25.0242L19.2667 24.9944L19.2021 24.9591L19.1696 24.9402L19.1615 24.9347L19.075 24.886L18.9993 24.8426L18.9777 24.8318L18.8807 24.7775L13.985 22.0021L12.9536 21.4166L12.6455 21.2432L11.3113 20.4897L11.1696 20.4083L9.95167 19.7172C9.83006 19.6531 9.73037 19.554 9.66542 19.4326C9.64977 19.4057 9.63622 19.3776 9.62488 19.3486L9.56812 19.0802C9.56785 18.9538 9.60094 18.8295 9.66403 18.72C9.72711 18.6106 9.81796 18.5197 9.92734 18.4568L9.93545 18.4487C9.94086 18.4487 9.94626 18.4433 9.95167 18.4433L11.1696 17.7548L11.3126 17.6735L17.0743 14.4075L17.447 14.1961L18.8812 13.3856L18.9783 13.3287L18.9999 13.3179L19.0756 13.2745L19.1621 13.2257L19.1702 13.2203L19.2026 13.2013L19.2672 13.1661L19.3213 13.1363L19.3645 13.1119L19.4051 13.0902L19.4618 13.0577L19.4807 13.0468L19.6075 12.9737L19.6426 12.9547L19.8102 12.8598L20.0451 12.7243L21.7788 11.7431C21.8329 11.7133 21.8842 11.6835 21.9356 11.6564C22.1618 11.5441 22.4109 11.4856 22.6634 11.4856C22.9158 11.4856 23.1649 11.5441 23.3911 11.6564C23.4452 11.6835 23.4963 11.7133 23.5476 11.7431L26.4482 13.3856L28.2522 14.4075L34.0152 17.6735L34.1233 17.7359L35.3764 18.4433C35.3845 18.4433 35.3899 18.4487 35.3953 18.4487L35.4007 18.4568C35.5108 18.5192 35.6023 18.6098 35.6659 18.7194C35.7294 18.8289 35.7627 18.9535 35.7624 19.0802V19.0802Z" fill="#123B6D"/>
<path d="M26.5766 7.14896H19.0083V14.1961L26.5766 21.2432H34.145V14.1961L26.5766 7.14896Z" fill="#28A8EA"/>
<path d="M26.5766 21.2431V28.2902H19.0083L18.8732 28.1764L18.8542 28.1601V28.1574L18.8299 28.1357L18.7813 28.0951L18.6894 28.0165L18.6812 28.0111L18.5623 27.9081L18.5596 27.9054L18.5299 27.881L18.5164 27.8701L18.5028 27.8566L18.3434 27.7211H18.3407L18.3082 27.6912L18.2866 27.6723L18.2731 27.6614L18.2407 27.6343L18.1596 27.5666L17.9974 27.4337L11.44 22.0536L11.1697 21.8313V14.196H19.0083L19.1705 14.3478L19.211 14.3858L19.33 14.4969L19.4138 14.5728L19.4894 14.6433L19.6165 14.7625L19.6516 14.795L19.8192 14.9523L26.5766 21.2431Z" fill="#0364B8"/>
<path d="M19.0083 21.2431H11.4399V28.2902H19.0083V21.2431Z" fill="#14447D"/>
<path d="M34.1447 21.2431H26.5764V28.2902H34.1447V21.2431Z" fill="#0078D4"/>
<path d="M34.1447 7.14896H26.5764V14.1961H34.1447V7.14896Z" fill="#50D9FF"/>
<path d="M19.0083 7.14896H11.1697V14.1961H19.0083V7.14896Z" fill="#0078D4"/>
<path d="M26.5766 14.196H19.0083V21.2431H26.5766V14.196Z" fill="#0078D4"/>
<path d="M12.6239 3.08331H32.6908C32.8817 3.08331 33.0708 3.12103 33.2473 3.19431C33.4237 3.26759 33.584 3.375 33.719 3.51041C33.8541 3.64582 33.9612 3.80657 34.0343 3.98349C34.1074 4.16041 34.145 4.35003 34.145 4.54152V7.14895H11.1697V4.54152C11.1697 4.35003 11.2073 4.16041 11.2804 3.98349C11.3535 3.80657 11.4606 3.64582 11.5956 3.51041C11.7306 3.375 11.8909 3.26759 12.0674 3.19431C12.2438 3.12103 12.4329 3.08331 12.6239 3.08331V3.08331Z" fill="#0358A7"/>
<path opacity="0.1" d="M34.145 19.2995L23.0471 25.3381L22.9952 25.3682C22.9778 25.3789 22.9597 25.3885 22.9411 25.3972C22.9211 25.4066 22.9003 25.415 22.8798 25.4224L22.5176 25.2188L22.4724 25.1947C22.4508 25.1838 22.4289 25.1725 22.4084 25.1594L22.3813 25.1426L20.1833 23.9175L20.0038 23.8159L19.8565 23.7346L19.5321 23.5516L11.1697 18.89V27.6335H34.145V19.2995Z" fill="#0A2767"/>
<path opacity="0.1" d="M34.145 19.5705L23.0471 25.6091L22.9952 25.6392C22.9778 25.6499 22.9597 25.6596 22.9411 25.6682C22.9211 25.6777 22.9003 25.6861 22.8798 25.6934L22.5176 25.4898L22.4724 25.4657C22.4508 25.4549 22.4289 25.4435 22.4084 25.4305L22.3813 25.4137L20.1833 24.1886L20.0038 24.0869L19.8565 24.0056L19.5321 23.8227L11.1697 19.161V27.9045H34.145V19.5705Z" fill="#0A2767"/>
<path opacity="0.1" d="M34.145 19.8416L23.0471 25.8801L22.9952 25.9102C22.9778 25.9209 22.9597 25.9306 22.9411 25.9392C22.9211 25.9487 22.9003 25.9571 22.8798 25.9644L22.5176 25.7609L22.4724 25.7368C22.4508 25.7259 22.4289 25.7145 22.4084 25.7015L22.3813 25.6847L20.1833 24.4596L20.0038 24.358L19.8565 24.2767L19.5321 24.0937L11.1697 19.4321V28.1756H34.145V19.8416Z" fill="#0A2767"/>
<path opacity="0.1" d="M34.145 20.1126L23.0471 26.1512L22.9952 26.1813C22.9778 26.192 22.9597 26.2017 22.9411 26.2103C22.9211 26.2198 22.9003 26.2282 22.8798 26.2355L22.5176 26.0319L22.4724 26.0078C22.4508 25.997 22.4289 25.9856 22.4084 25.9726L22.3813 25.9558L20.1833 24.7307L20.0038 24.629L19.8565 24.5477L19.5321 24.3647L11.1697 19.7031V28.4466H34.145V20.1126Z" fill="#0A2767"/>
<path d="M35.3994 19.6825L35.3848 19.6904L35.3813 19.6925L23.5423 26.1338C23.491 26.1656 23.4381 26.1945 23.3836 26.2203V26.2203C23.1558 26.3278 22.9071 26.3835 22.6553 26.3835C22.4035 26.3835 22.1548 26.3278 21.927 26.2203V26.2203C21.8726 26.1944 21.8196 26.1655 21.7683 26.1338L22.3254 30.1501L34.126 33.6864C34.47 33.6879 34.8061 33.5839 35.0894 33.3883C35.296 33.2481 35.4656 33.0596 35.5833 32.839C35.701 32.6184 35.7634 32.3724 35.7651 32.1222V19.0808C35.7638 19.2048 35.7292 19.3262 35.6648 19.4321C35.6004 19.538 35.5087 19.6245 35.3994 19.6825V19.6825Z" fill="#1490DF"/>
<path opacity="0.05" d="M24.0031 25.8951L23.5628 26.1344C23.5114 26.166 23.4585 26.1949 23.4041 26.2208V26.2208C23.1763 26.3283 22.9277 26.384 22.6759 26.384C22.4242 26.384 22.1755 26.3283 21.9477 26.2208V26.2208C21.8933 26.1949 21.8404 26.166 21.7891 26.1344L22.3461 30.1507L34.1468 33.687C34.4908 33.6884 34.827 33.5844 35.1104 33.3888C35.4248 33.1732 35.6497 32.8496 35.7426 32.4792L24.0031 25.8951Z" fill="black"/>
<path opacity="0.05" d="M35.6526 32.7386L23.722 26.0479L23.5628 26.1344C23.5114 26.166 23.4585 26.1949 23.4041 26.2209V26.2209C23.1763 26.3283 22.9277 26.384 22.6759 26.384C22.4242 26.384 22.1755 26.3283 21.9477 26.2209V26.2209C21.8933 26.1949 21.8404 26.166 21.7891 26.1344L22.3461 30.1507L34.1468 33.687C34.4908 33.6884 34.827 33.5844 35.1104 33.3888C35.3466 33.2254 35.5341 33.0007 35.6526 32.7386V32.7386Z" fill="black"/>
<path opacity="0.05" d="M35.5202 32.975L23.4427 26.2032L23.4041 26.2222C23.1763 26.3297 22.9277 26.3854 22.6759 26.3854C22.4242 26.3854 22.1755 26.3297 21.9477 26.2222V26.2222C21.8933 26.1962 21.8404 26.1674 21.7891 26.1357L22.3461 30.152L34.1468 33.6883C34.4908 33.6898 34.827 33.5858 35.1104 33.3902C35.2711 33.278 35.41 33.1372 35.5202 32.975Z" fill="black"/>
<path opacity="0.05" d="M35.3461 33.1877L23.219 26.3867L23.1587 26.3545L23.1111 26.3274C22.7227 26.4297 22.3109 26.3919 21.9475 26.2206V26.2206C21.8931 26.1946 21.8401 26.1657 21.7888 26.1341L22.3459 30.1504L34.1465 33.6867C34.4906 33.6882 34.8268 33.5841 35.1102 33.3886C35.195 33.3293 35.274 33.262 35.3461 33.1877V33.1877Z" fill="black"/>
<path d="M35.126 33.375C35.0908 33.3994 35.0557 33.4238 35.0206 33.4455C34.9854 33.4672 34.9476 33.4861 34.9097 33.5051C34.8665 33.5268 34.8232 33.5458 34.78 33.5647C34.7773 33.5647 34.7746 33.5674 34.7719 33.5674C34.7232 33.5855 34.6746 33.6018 34.6259 33.6162C34.5715 33.6352 34.5154 33.6488 34.4583 33.6569C34.446 33.6609 34.4334 33.6636 34.4205 33.665C34.3908 33.6704 34.361 33.6732 34.3286 33.6759C34.2704 33.6836 34.2117 33.6872 34.1529 33.6867H11.2101C10.9967 33.6892 10.785 33.6496 10.5869 33.57C10.3889 33.4904 10.2084 33.3725 10.0558 33.223C9.90319 33.0735 9.78145 32.8954 9.69752 32.6987C9.61359 32.502 9.56912 32.2906 9.56665 32.0767V19.0802L9.93966 19.2889L9.94507 19.2916C9.94777 19.2944 9.94777 19.2944 9.95047 19.2944L11.1695 19.9747L13.4454 21.2431L19.0081 24.3439L19.1703 24.436L19.2109 24.4577L19.3298 24.5255L19.4136 24.5715L19.4893 24.6122L19.6163 24.6854L19.6514 24.7044L19.819 24.7965L21.83 25.9186C21.8814 25.9512 21.9355 25.981 21.9895 26.0081L22.6599 26.3848L23.0842 26.6233H23.0869L24.8898 27.6343L25.3736 27.9054L25.8575 28.1764L26.0602 28.2903L26.3413 28.4475L35.126 33.375Z" fill="#28A8EA"/>
<path opacity="0.05" d="M19.8192 10.9435V27.1031C19.8194 27.2849 19.7855 27.4651 19.7191 27.6343C19.6821 27.7295 19.635 27.8203 19.5786 27.9054C19.5138 28.0059 19.4356 28.0971 19.3461 28.1764C19.3027 28.2173 19.2566 28.2553 19.2083 28.2902C19.1214 28.3526 19.0281 28.4053 18.9299 28.4475C18.751 28.5228 18.559 28.5615 18.365 28.5613H9.54785V27.4771H9.56677V19.0802C9.5665 18.9538 9.59962 18.8295 9.66276 18.72C9.7259 18.6105 9.81682 18.5197 9.92627 18.4568L9.93438 18.4487C9.93978 18.4487 9.94519 18.4433 9.9506 18.4433L11.1696 17.7548V9.31729H18.365C18.5925 9.31871 18.8152 9.38345 19.0083 9.50431C19.2526 9.65713 19.4549 9.86894 19.5965 10.1204C19.7382 10.3718 19.8147 10.6548 19.8192 10.9435Z" fill="black"/>
<path opacity="0.075" d="M19.6164 10.9707V26.832C19.6178 27.1164 19.5371 27.395 19.384 27.6343C19.3211 27.7347 19.2447 27.826 19.1569 27.9054C19.1118 27.9512 19.062 27.992 19.0083 28.0273C18.9527 28.0695 18.8929 28.1059 18.8299 28.1358C18.8028 28.152 18.7758 28.1629 18.7488 28.1764C18.571 28.252 18.3797 28.2908 18.1866 28.2903H9.54785V27.4771H9.56677V19.0802C9.5665 18.9538 9.59962 18.8295 9.66276 18.72C9.7259 18.6105 9.81682 18.5197 9.92627 18.4568L9.93438 18.4487C9.93978 18.4487 9.94519 18.4433 9.9506 18.4433L11.1696 17.7548V9.38506H18.1622C18.4724 9.38905 18.7715 9.50117 19.0083 9.70217C19.1958 9.85633 19.3474 10.0498 19.4524 10.2689C19.5575 10.488 19.6135 10.7275 19.6164 10.9707Z" fill="black"/>
<path opacity="0.1" d="M19.4137 10.995V26.561C19.4183 26.9459 19.2728 27.3174 19.0083 27.5964C18.9954 27.6097 18.9819 27.6224 18.9677 27.6343C18.8528 27.7482 18.7182 27.84 18.5704 27.9054C18.5677 27.9054 18.565 27.9081 18.5623 27.9081C18.3877 27.9815 18.2002 28.0193 18.0109 28.0192H9.54785V27.4771H9.56677V19.0802C9.5665 18.9537 9.59962 18.8294 9.66276 18.72C9.7259 18.6105 9.81682 18.5197 9.92627 18.4568L9.93438 18.4487C9.93978 18.4487 9.94519 18.4433 9.9506 18.4433L11.1696 17.7548V9.4528H17.9595C18.1592 9.45575 18.356 9.50126 18.5368 9.58631C18.7176 9.67136 18.8783 9.79401 19.0083 9.9461C19.2668 10.2342 19.4111 10.6074 19.4137 10.995V10.995Z" fill="black"/>
<path opacity="0.125" d="M19.211 11.0194V26.29C19.2126 26.5626 19.1427 26.8309 19.0083 27.0678C18.8672 27.3178 18.6504 27.5162 18.3893 27.6343C18.3568 27.6479 18.3217 27.6614 18.2866 27.6723C18.1414 27.7227 17.9888 27.7483 17.8352 27.7482H9.54785V27.4771H9.56677V19.0802C9.5665 18.9537 9.59962 18.8295 9.66276 18.72C9.7259 18.6105 9.81682 18.5197 9.92627 18.4568L9.93438 18.4487C9.93978 18.4487 9.94519 18.4433 9.9506 18.4433L11.1696 17.7548V9.52057H17.7568C18.0126 9.52367 18.2631 9.59449 18.4828 9.72586C18.7026 9.85722 18.8839 10.0445 19.0083 10.2686C19.1409 10.4965 19.2109 10.7556 19.211 11.0194V11.0194Z" fill="black"/>
<path opacity="0.2" d="M19.0081 11.0465V26.0189C19.024 26.3346 18.9326 26.6464 18.749 26.9033C18.5654 27.1603 18.3004 27.3473 17.9972 27.4338C17.8862 27.4635 17.7716 27.4781 17.6567 27.4771H9.56665V19.0802C9.56638 18.9538 9.5995 18.8295 9.66264 18.72C9.72578 18.6105 9.8167 18.5197 9.92615 18.4568L9.93426 18.4487C9.93966 18.4487 9.94507 18.4433 9.95047 18.4433L11.1695 17.7548V9.58833H17.5539C17.9396 9.58848 18.3094 9.74216 18.5821 10.0156C18.8547 10.289 19.008 10.6598 19.0081 11.0465Z" fill="black"/>
<path d="M17.5541 9.58833H2.89316C2.09003 9.58833 1.43896 10.2412 1.43896 11.0465V25.7479C1.43896 26.5532 2.09003 27.2061 2.89316 27.2061H17.5541C18.3572 27.2061 19.0083 26.5532 19.0083 25.7479V11.0465C19.0083 10.2412 18.3572 9.58833 17.5541 9.58833Z" fill="url(#paint0_linear_1628_1374)"/>
<path d="M6.31523 15.9966C6.65042 15.2812 7.19106 14.6826 7.86782 14.2774C8.61768 13.847 9.47145 13.6325 10.3351 13.6575C11.1352 13.64 11.9248 13.8434 12.6175 14.2454C13.2692 14.6348 13.7941 15.2056 14.1285 15.8884C14.4923 16.6409 14.6736 17.469 14.6577 18.3051C14.6753 19.179 14.4886 20.045 14.1125 20.8336C13.7708 21.5407 13.23 22.1318 12.5569 22.5341C11.8373 22.9489 11.0181 23.1577 10.1883 23.138C9.37102 23.1575 8.56404 22.9519 7.85512 22.5436C7.19795 22.1536 6.66671 21.5821 6.32496 20.8973C5.95895 20.1556 5.7757 19.3366 5.79059 18.5092C5.77416 17.6427 5.95352 16.7837 6.31523 15.9966ZM7.96972 20.0338C8.14837 20.4861 8.45117 20.8785 8.84306 21.1654C9.24231 21.4454 9.72047 21.5898 10.2075 21.5776C10.7262 21.598 11.2375 21.4489 11.6644 21.1526C12.0517 20.8656 12.3465 20.4711 12.5123 20.0178C12.6984 19.5125 12.79 18.9772 12.7826 18.4387C12.7885 17.895 12.7024 17.3543 12.5278 16.8395C12.3737 16.377 12.0898 15.9689 11.7101 15.6643C11.2943 15.3531 10.7843 15.1951 10.2659 15.2168C9.76807 15.2039 9.27894 15.3494 8.86873 15.6326C8.46935 15.9203 8.15995 16.3161 7.97675 16.7737C7.57104 17.822 7.56873 18.9841 7.97027 20.034L7.96972 20.0338Z" fill="white"/>
</g>
<defs>
<filter id="filter0_ii_1628_1374" x="1.43896" y="2.67222" width="34.3279" height="31.45" filterUnits="userSpaceOnUse" color-interpolation-filters="sRGB">
<feFlood flood-opacity="0" result="BackgroundImageFix"/>
<feBlend mode="normal" in="SourceGraphic" in2="BackgroundImageFix" result="shape"/>
<feColorMatrix in="SourceAlpha" type="matrix" values="0 0 0 0 0 0 0 0 0 0 0 0 0 0 0 0 0 0 127 0" result="hardAlpha"/>
<feOffset dy="0.411111"/>
<feGaussianBlur stdDeviation="0.411111"/>
<feComposite in2="hardAlpha" operator="arithmetic" k2="-1" k3="1"/>
<feColorMatrix type="matrix" values="0 0 0 0 1 0 0 0 0 1 0 0 0 0 1 0 0 0 0.25 0"/>
<feBlend mode="normal" in2="shape" result="effect1_innerShadow_1628_1374"/>
<feColorMatrix in="SourceAlpha" type="matrix" values="0 0 0 0 0 0 0 0 0 0 0 0 0 0 0 0 0 0 127 0" result="hardAlpha"/>
<feOffset dy="-0.411111"/>
<feGaussianBlur stdDeviation="0.411111"/>
<feComposite in2="hardAlpha" operator="arithmetic" k2="-1" k3="1"/>
<feColorMatrix type="matrix" values="0 0 0 0 0 0 0 0 0 0 0 0 0 0 0 0 0 0 0.12 0"/>
<feBlend mode="normal" in2="effect1_innerShadow_1628_1374" result="effect2_innerShadow_1628_1374"/>
</filter>
<linearGradient id="paint0_linear_1628_1374" x1="4.48954" y1="8.4383" x2="16.0051" y2="28.3287" gradientUnits="userSpaceOnUse">
<stop stop-color="#1784D9"/>
<stop offset="0.5" stop-color="#107AD5"/>
<stop offset="1" stop-color="#0A63C9"/>
</linearGradient>
<clipPath id="clip0_1628_1374">
<rect width="34.3278" height="30.6278" fill="white" transform="translate(1.43896 3.08333)"/>
</clipPath>
</defs>
</svg>
