<svg width="20" height="20" viewBox="0 0 20 20" fill="none" xmlns="http://www.w3.org/2000/svg">
<g clip-path="url(#clip0_1572_528)">
<path d="M4.21635 12.6332C4.21635 13.7947 3.2776 14.7334 2.11611 14.7334C0.954613 14.7334 0.0158691 13.7947 0.0158691 12.6332C0.0158691 11.4717 0.954613 10.533 2.11611 10.533H4.21635V12.6332ZM5.26647 12.6332C5.26647 11.4717 6.20521 10.533 7.36671 10.533C8.5282 10.533 9.46695 11.4717 9.46695 12.6332V17.8838C9.46695 19.0453 8.5282 19.984 7.36671 19.984C6.20521 19.984 5.26647 19.0453 5.26647 17.8838V12.6332Z" fill="#E01E5A"/>
<path d="M7.36675 4.20048C6.20525 4.20048 5.26651 3.26174 5.26651 2.10024C5.26651 0.938744 6.20525 0 7.36675 0C8.52825 0 9.46699 0.938744 9.46699 2.10024V4.20048H7.36675ZM7.36675 5.26651C8.52825 5.26651 9.46699 6.20525 9.46699 7.36675C9.46699 8.52825 8.52825 9.46699 7.36675 9.46699H2.10024C0.938744 9.46699 0 8.52825 0 7.36675C0 6.20525 0.938744 5.26651 2.10024 5.26651H7.36675Z" fill="#36C5F0"/>
<path d="M15.7836 7.36675C15.7836 6.20525 16.7223 5.26651 17.8838 5.26651C19.0453 5.26651 19.984 6.20525 19.984 7.36675C19.984 8.52825 19.0453 9.46699 17.8838 9.46699H15.7836V7.36675ZM14.7334 7.36675C14.7334 8.52825 13.7947 9.46699 12.6332 9.46699C11.4717 9.46699 10.533 8.52825 10.533 7.36675V2.10024C10.533 0.938744 11.4717 0 12.6332 0C13.7947 0 14.7334 0.938744 14.7334 2.10024V7.36675Z" fill="#2EB67D"/>
<path d="M12.6332 15.7836C13.7947 15.7836 14.7334 16.7223 14.7334 17.8838C14.7334 19.0453 13.7947 19.984 12.6332 19.984C11.4717 19.984 10.533 19.0453 10.533 17.8838V15.7836H12.6332ZM12.6332 14.7334C11.4717 14.7334 10.533 13.7947 10.533 12.6332C10.533 11.4717 11.4717 10.533 12.6332 10.533H17.8997C19.0612 10.533 19.9999 11.4717 19.9999 12.6332C19.9999 13.7947 19.0612 14.7334 17.8997 14.7334H12.6332Z" fill="#ECB22E"/>
</g>
<defs>
<clipPath id="clip0_1572_528">
<rect width="20" height="20" fill="white"/>
</clipPath>
</defs>
</svg>
