<svg width="38" height="38" viewBox="0 0 38 38" fill="none" xmlns="http://www.w3.org/2000/svg">
<path d="M19.8896 12.48C22.9053 12.48 25.35 10.0354 25.35 7.01979C25.35 4.00419 22.9053 1.55956 19.8896 1.55956C16.8739 1.55956 14.4292 4.00419 14.4292 7.01979C14.4292 10.0354 16.8739 12.48 19.8896 12.48Z" fill="#7B83EB"/>
<path opacity="0.1" d="M19.5005 8.1902H14.5549L14.5795 8.29901L14.5818 8.30837L14.6076 8.40899C14.9669 9.7717 15.8388 10.9429 17.0412 11.6781C18.2435 12.4132 19.6834 12.6555 21.0601 12.3542V9.74981C21.0589 9.33656 20.8942 8.94058 20.602 8.64836C20.3098 8.35615 19.9138 8.19144 19.5005 8.1902Z" fill="black"/>
<path opacity="0.2" d="M18.3311 9.35997H14.9568C15.3996 10.2937 16.0983 11.0825 16.9717 11.6349C17.8451 12.1872 18.8573 12.4804 19.8907 12.4804V10.9196C19.8894 10.5063 19.7247 10.1103 19.4325 9.81813C19.1403 9.52592 18.7443 9.3612 18.3311 9.35997Z" fill="black"/>
<path d="M32.1756 12.8701C34.4372 12.8701 36.2706 11.0367 36.2706 8.77512C36.2706 6.51351 34.4372 4.68011 32.1756 4.68011C29.914 4.68011 28.0806 6.51351 28.0806 8.77512C28.0806 11.0367 29.914 12.8701 32.1756 12.8701Z" fill="#5059C9"/>
<path d="M35.685 14.04H26.4876C26.289 14.04 26.0986 14.1189 25.9581 14.2593C25.8177 14.3997 25.7388 14.5902 25.7388 14.7887V24.2772C25.7135 25.6504 26.1607 26.9907 27.0057 28.0735C27.8506 29.1564 29.042 29.916 30.3802 30.2253C31.2325 30.4041 32.114 30.3906 32.9605 30.1858C33.8069 29.981 34.5971 29.59 35.2733 29.0413C35.9496 28.4926 36.495 27.8 36.8698 27.0139C37.2446 26.2278 37.4394 25.368 37.44 24.4971V15.7949C37.44 15.3295 37.2551 14.8831 36.926 14.554C36.5968 14.2249 36.1504 14.04 35.685 14.04Z" fill="#5059C9"/>
<path d="M29.2495 15.7949V26.9096C29.2507 28.9694 28.5719 30.972 27.3185 32.6065C26.0651 34.2411 24.3072 35.4163 22.3177 35.9496C20.3281 36.483 18.2181 36.3448 16.3151 35.5564C14.4121 34.768 12.8226 33.3736 11.7931 31.5895C11.568 31.2153 11.3724 30.8241 11.2081 30.4195C11.055 30.038 10.926 29.6472 10.822 29.2495C10.6292 28.4845 10.5309 27.6986 10.5295 26.9096V15.7949C10.5292 15.5644 10.5744 15.336 10.6625 15.123C10.7506 14.9099 10.8799 14.7163 11.0429 14.5533C11.2059 14.3903 11.3995 14.261 11.6126 14.1729C11.8256 14.0848 12.054 14.0397 12.2845 14.04H27.4945C27.7251 14.0397 27.9534 14.0848 28.1665 14.1729C28.3796 14.261 28.5732 14.3903 28.7362 14.5533C28.8992 14.7163 29.0285 14.9099 29.1166 15.123C29.2047 15.336 29.2498 15.5644 29.2495 15.7949Z" fill="#7B83EB"/>
<path opacity="0.2" d="M18.3311 9.35997H14.9568C15.3996 10.2937 16.0983 11.0825 16.9717 11.6349C17.8451 12.1872 18.8573 12.4804 19.8907 12.4804V10.9196C19.8894 10.5063 19.7247 10.1103 19.4325 9.81813C19.1403 9.52592 18.7443 9.3612 18.3311 9.35997Z" fill="black"/>
<path opacity="0.1" d="M21.0595 14.04V28.8635C21.0595 29.2161 20.9388 29.5582 20.7175 29.8328C20.4961 30.1074 20.1874 30.2979 19.8427 30.3727C19.7327 30.4055 19.6183 30.4212 19.5034 30.4195H11.2081C11.055 30.038 10.926 29.6472 10.822 29.2495C10.6292 28.4845 10.5309 27.6986 10.5295 26.9096V15.7949C10.5292 15.5644 10.5744 15.336 10.6625 15.123C10.7506 14.9099 10.8799 14.7163 11.0429 14.5533C11.2059 14.3903 11.3995 14.261 11.6126 14.1729C11.8256 14.0848 12.054 14.0397 12.2845 14.04H21.0595Z" fill="black"/>
<path opacity="0.2" d="M19.8895 14.04V30.0334C19.8912 30.1482 19.8755 30.2626 19.8427 30.3727C19.7679 30.7174 19.5774 31.0261 19.3028 31.2474C19.0282 31.4688 18.6861 31.5895 18.3334 31.5895H11.7931C11.568 31.2153 11.3724 30.8241 11.2081 30.4195C11.055 30.038 10.926 29.6472 10.822 29.2495C10.6292 28.4845 10.5309 27.6986 10.5295 26.9096V15.7949C10.5292 15.5644 10.5744 15.336 10.6625 15.123C10.7506 14.9099 10.8799 14.7163 11.0429 14.5533C11.2059 14.3903 11.3995 14.261 11.6126 14.1729C11.8256 14.0848 12.054 14.0397 12.2845 14.04H19.8895Z" fill="black"/>
<path opacity="0.2" d="M19.8895 14.04V27.6935C19.8877 28.1056 19.7232 28.5003 19.4317 28.7917C19.1403 29.0832 18.7456 29.2477 18.3334 29.2495H10.822C10.6292 28.4845 10.5309 27.6986 10.5295 26.9096V15.7949C10.5292 15.5644 10.5744 15.336 10.6625 15.123C10.7506 14.9099 10.8799 14.7163 11.0429 14.5533C11.2059 14.3903 11.3995 14.261 11.6126 14.1729C11.8256 14.0848 12.054 14.0397 12.2845 14.04H19.8895Z" fill="black"/>
<path opacity="0.2" d="M12.2845 14.04C12.054 14.0397 11.8256 14.0848 11.6126 14.1729C11.3995 14.261 11.2059 14.3903 11.0429 14.5533C10.8799 14.7163 10.7506 14.9099 10.6625 15.123C10.5744 15.336 10.5292 15.5644 10.5295 15.7949V26.9096C10.5309 27.6986 10.6292 28.4845 10.822 29.2495H17.1634C17.5756 29.2477 17.9703 29.0832 18.2617 28.7917C18.5532 28.5003 18.7177 28.1056 18.7195 27.6935V14.04H12.2845Z" fill="black"/>
<path d="M1.55961 9.35997H17.1604C17.574 9.35997 17.9707 9.52428 18.2632 9.81676C18.5557 10.1092 18.72 10.5059 18.72 10.9195V26.5199C18.72 26.9335 18.5557 27.3302 18.2632 27.6227C17.9707 27.9151 17.574 28.0794 17.1604 28.0794H1.55961C1.14597 28.0794 0.749282 27.9151 0.456799 27.6227C0.164315 27.3302 0 26.9335 0 26.5199L0 10.9195C0 10.5059 0.164315 10.1092 0.456799 9.81676C0.749282 9.52428 1.14597 9.35997 1.55961 9.35997Z" fill="#4B53BC"/>
<path d="M14.0168 15.1806H10.5185V24.5638H8.22297V15.1806H4.70361V12.8758H14.0168V15.1806Z" fill="white"/>
</svg>
