<svg width="1200" height="900" viewBox="0 0 1200 900" fill="none" xmlns="http://www.w3.org/2000/svg">
  <defs>
    <linearGradient id="bg" x1="0" y1="0" x2="1" y2="1">
      <stop offset="0%" stop-color="#E0F2FE" />
      <stop offset="50%" stop-color="#F8FAFC" />
      <stop offset="100%" stop-color="#FDE68A" />
    </linearGradient>
  </defs>
  <rect width="1200" height="900" rx="48" fill="url(#bg)" />
  <rect x="80" y="90" width="1040" height="720" rx="36" fill="white" opacity="0.9" />
  <g opacity="0.7">
    <rect x="150" y="170" width="420" height="20" rx="10" fill="#CBD5F5" />
    <rect x="150" y="210" width="520" height="16" rx="8" fill="#E2E8F0" />
    <rect x="150" y="250" width="460" height="16" rx="8" fill="#E2E8F0" />
    <rect x="150" y="330" width="360" height="120" rx="20" fill="#F1F5F9" />
    <rect x="540" y="330" width="260" height="120" rx="20" fill="#F1F5F9" />
    <rect x="150" y="480" width="620" height="16" rx="8" fill="#E2E8F0" />
    <rect x="150" y="520" width="520" height="16" rx="8" fill="#E2E8F0" />
    <rect x="150" y="560" width="580" height="16" rx="8" fill="#E2E8F0" />
    <rect x="150" y="640" width="240" height="44" rx="22" fill="#111827" />
  </g>
  <text x="210" y="675" fill="white" font-family="Arial, sans-serif" font-size="16" font-weight="600">NUMA</text>
</svg>
