<svg width="20" height="20" viewBox="0 0 20 20" fill="none" xmlns="http://www.w3.org/2000/svg">
<path d="M5.54007 16.8287L5.84102 17.0071C7.10556 17.7575 8.55533 18.1544 10.0337 18.1552H10.0369C14.5772 18.1552 18.2724 14.4608 18.2744 9.92016C18.275 7.71967 17.4192 5.65057 15.8638 4.09412C14.3084 2.53771 12.2404 1.68003 10.04 1.67913C5.49621 1.67913 1.80104 5.37301 1.79924 9.91346C1.79862 11.4694 2.23395 12.9847 3.0586 14.2959L3.25467 14.6074L2.42227 17.6461L5.54007 16.8287ZM0.0427246 20L1.44878 14.866C0.581549 13.3635 0.125266 11.659 0.125931 9.9128C0.128117 4.45004 4.57391 0.00567627 10.0369 0.00567627C12.688 0.00681674 15.1763 1.03866 17.0477 2.91126C18.9187 4.78401 19.9487 7.27332 19.9478 9.92083C19.9455 15.3833 15.4991 19.8285 10.0369 19.8285C10.0366 19.8285 10.0372 19.8285 10.0369 19.8285H10.0327C8.37409 19.8278 6.74422 19.4118 5.29668 18.6224L0.0427246 20Z" fill="white"/>
<path d="M0.460894 9.90493C0.460894 11.6035 0.904845 13.2442 1.75414 14.6919L0.383685 19.6525L5.46016 18.3207C6.84991 19.0928 8.43269 19.4788 10.0348 19.4788C15.3043 19.4788 19.6086 15.1937 19.6086 9.92424C19.6086 7.35705 18.6049 4.96358 16.8098 3.14918C14.9954 1.35407 12.602 0.350363 10.0348 0.350363C4.76528 0.350363 0.460894 4.63544 0.460894 9.90493Z" fill="url(#paint0_linear_1572_516)"/>
<path d="M0.118989 9.89718C0.118989 11.6567 0.578859 13.3562 1.45861 14.8558L0.0390115 19.9943L5.29752 18.6147C6.73711 19.4145 8.37665 19.8144 10.0362 19.8144C15.4946 19.8144 19.9534 15.3756 19.9534 9.91718C19.9534 7.25793 18.9137 4.77863 17.0542 2.89917C15.1747 1.03969 12.6954 -1.33514e-05 10.0362 -1.33514e-05C4.57773 -1.33514e-05 0.118989 4.43873 0.118989 9.89718ZM3.2581 14.5959L3.05816 14.2959C2.23839 12.9763 1.79851 11.4567 1.79851 9.91718C1.79851 5.35847 5.49747 1.67951 10.0362 1.67951C12.2356 1.67951 14.315 2.53927 15.8545 4.07883C17.4141 5.63839 18.2738 7.7178 18.2738 9.91718C18.2738 14.4559 14.5749 18.1548 10.0362 18.1548C8.5566 18.1548 7.09701 17.755 5.83737 16.9952L5.53745 16.8152L2.41834 17.635L3.2581 14.5959Z" fill="url(#paint1_linear_1572_516)"/>
<path fill-rule="evenodd" clip-rule="evenodd" d="M7.55995 5.77461C7.37444 5.36224 7.17918 5.35397 7.00269 5.34674C6.85837 5.34057 6.6931 5.34095 6.52811 5.34095C6.36303 5.34095 6.09469 5.40296 5.86783 5.65077C5.64078 5.89859 5.00098 6.49762 5.00098 7.71598C5.00098 8.93447 5.88845 10.1118 6.01215 10.2771C6.13598 10.4423 7.72532 13.0224 10.2424 14.015C12.3343 14.8399 12.76 14.6758 13.214 14.6346C13.6681 14.5933 14.6791 14.0357 14.8855 13.4574C15.0919 12.8792 15.0919 12.3836 15.03 12.28C14.9681 12.1768 14.803 12.1149 14.5553 11.9911C14.3076 11.8672 13.0902 11.2681 12.8631 11.1855C12.6361 11.103 12.471 11.0617 12.3059 11.3096C12.1408 11.5573 11.6665 12.1149 11.522 12.28C11.3775 12.4456 11.2331 12.4662 10.9854 12.3423C10.7377 12.2181 9.94016 11.9569 8.994 11.1133C8.25783 10.457 7.76082 9.64636 7.61631 9.39845C7.47185 9.15078 7.60087 9.01663 7.72508 8.89318C7.83628 8.78222 7.97276 8.60412 8.09659 8.45951C8.22014 8.31491 8.26144 8.2117 8.34398 8.04657C8.42652 7.8812 8.38527 7.7366 8.32336 7.61276C8.26144 7.48893 7.78016 6.26425 7.55995 5.77461Z" fill="white"/>
<defs>
<linearGradient id="paint0_linear_1572_516" x1="9.99511" y1="19.6525" x2="9.99511" y2="0.350363" gradientUnits="userSpaceOnUse">
<stop stop-color="#20B038"/>
<stop offset="1" stop-color="#60D66A"/>
</linearGradient>
<linearGradient id="paint1_linear_1572_516" x1="9.99531" y1="19.9943" x2="9.99531" y2="-1.33514e-05" gradientUnits="userSpaceOnUse">
<stop stop-color="#F9F9F9"/>
<stop offset="1" stop-color="white"/>
</linearGradient>
</defs>
</svg>
