<svg width="105" height="32" viewBox="0 0 105 32" fill="none" xmlns="http://www.w3.org/2000/svg">
<path d="M15.7867 6.62549C17.2084 6.60913 18.1796 6.73899 19.5316 7.26272C21.8155 8.16832 23.6539 9.9321 24.6531 12.1763C25.6762 14.4742 25.7241 17.0886 24.7858 19.4224C23.8587 21.7951 22.0271 23.5549 19.7121 24.568C18.322 25.1438 17.2575 25.2703 15.7884 25.3047C15.7522 23.7855 15.7823 22.1429 15.7815 20.6139C17.1269 20.5842 18.2915 20.2521 19.2861 19.3105C20.1843 18.4632 20.7085 17.2936 20.7433 16.0594C20.7634 14.8273 20.2964 13.6371 19.4436 12.7474C18.4263 11.6934 17.2068 11.3239 15.7789 11.2974L15.7867 6.62549Z" fill="#0B0B0B"/>
<path d="M7.41041 12.4161C8.02165 12.2491 8.65262 12.6091 8.81968 13.2203C8.98681 13.8315 8.62682 14.4623 8.01559 14.6295C7.40423 14.7967 6.77314 14.4367 6.60601 13.8254C6.43888 13.2141 6.79899 12.5832 7.41041 12.4161Z" fill="#0B0B0B"/>
<path d="M7.49466 16.8853C8.11876 16.8187 8.68055 17.2658 8.75548 17.8888C8.83047 18.5118 8.39077 19.0795 7.76869 19.1626C7.35889 19.2175 6.95124 19.0475 6.70177 18.7179C6.4523 18.3883 6.39955 17.9499 6.56368 17.5704C6.72787 17.191 7.08357 16.9292 7.49466 16.8853Z" fill="#0B0B0B"/>
<path d="M13.2733 23.2069C13.8698 23.0084 14.5151 23.3271 14.7199 23.9215C14.9247 24.5159 14.6126 25.1643 14.0202 25.3752C13.6315 25.5136 13.1985 25.4325 12.8861 25.163C12.5738 24.8935 12.4303 24.477 12.5105 24.0724C12.5905 23.6677 12.8818 23.3372 13.2733 23.2069Z" fill="#0B0B0B"/>
<path d="M13.6793 6.41403C14.0758 6.30175 14.502 6.41097 14.7954 6.70016C15.0889 6.98934 15.2044 7.41384 15.0979 7.81182C14.9914 8.20979 14.6792 8.51987 14.2805 8.62382C13.673 8.78216 13.0512 8.42204 12.8864 7.81629C12.7217 7.2106 13.0753 6.58518 13.6793 6.41403Z" fill="#0B0B0B"/>
<path d="M9.84984 8.55215C10.4634 8.44734 11.0482 8.85242 11.1656 9.46362C11.2829 10.0748 10.8899 10.6677 10.2811 10.7976C9.87607 10.884 9.45591 10.7447 9.18274 10.4334C8.90962 10.1222 8.82612 9.68751 8.96451 9.29719C9.10291 8.90687 9.44158 8.62185 9.84984 8.55215Z" fill="#0B0B0B"/>
<path d="M9.48279 20.8676C10.0885 20.7036 10.7131 21.0585 10.8821 21.6627C11.0512 22.2669 10.7014 22.8943 10.0986 23.0684C9.48855 23.2445 8.85195 22.8897 8.6809 22.2784C8.50985 21.667 8.86996 21.0335 9.48279 20.8676Z" fill="#0B0B0B"/>
<path d="M10.1806 14.9999C10.7127 14.7994 11.3064 15.0702 11.5038 15.6034C11.7013 16.1366 11.4271 16.7287 10.8927 16.923C10.3626 17.1159 9.77621 16.8444 9.58035 16.3154C9.38449 15.7865 9.65264 15.1988 10.1806 14.9999Z" fill="#0B0B0B"/>
<path d="M13.1233 19.7218C13.4908 19.6569 13.8646 19.7966 14.0993 20.0869C14.3338 20.377 14.3923 20.7717 14.2518 21.1174C14.1113 21.4631 13.794 21.7052 13.4235 21.7494C12.8723 21.8152 12.3688 21.4306 12.2875 20.8815C12.2062 20.3324 12.5767 19.8184 13.1233 19.7218Z" fill="#0B0B0B"/>
<path d="M11.1509 12.1808C11.706 12.1084 12.2163 12.495 12.2967 13.0488C12.3771 13.6026 11.9979 14.1184 11.4452 14.2069C11.0804 14.2652 10.7126 14.1227 10.4824 13.8338C10.2523 13.5449 10.1957 13.1546 10.3341 12.8122C10.4725 12.4698 10.7847 12.2286 11.1509 12.1808Z" fill="#0B0B0B"/>
<path d="M12.9732 10.2102C13.3231 10.0915 13.7098 10.1711 13.9845 10.418C14.2592 10.665 14.3791 11.0411 14.2982 11.4014C14.2173 11.7619 13.9481 12.0506 13.5941 12.1564C13.0604 12.316 12.4971 12.0188 12.3279 11.4881C12.1586 10.9575 12.4456 10.3891 12.9732 10.2102Z" fill="#0B0B0B"/>
<path d="M10.9434 17.7502C11.4727 17.563 12.0538 17.8392 12.2427 18.3679C12.4317 18.8965 12.1573 19.4783 11.6293 19.669C11.0987 19.8605 10.5135 19.5846 10.3237 19.0535C10.1339 18.5225 10.4116 17.9383 10.9434 17.7502Z" fill="#0B0B0B"/>
<path d="M11.8598 30.3069C12.3087 30.14 12.8082 30.3653 12.9802 30.8122C13.1522 31.259 12.9325 31.7611 12.4876 31.9381C12.1953 32.0544 11.863 32.0046 11.6175 31.8077C11.3721 31.6109 11.2514 31.2974 11.3015 30.9868C11.3517 30.6762 11.5649 30.4166 11.8598 30.3069Z" fill="#0B0B0B"/>
<path d="M0.703793 19.3398C1.16493 19.1936 1.65682 19.451 1.79963 19.9131C1.9425 20.3752 1.68158 20.8652 1.21842 21.0046C0.759911 21.1428 0.27586 20.8851 0.134461 20.4277C-0.00693774 19.9702 0.24731 19.4844 0.703793 19.3398Z" fill="#0B0B0B"/>
<path d="M11.5597 0.0474787C12.0153 -0.109028 12.5113 0.134093 12.6667 0.590015C12.8221 1.04594 12.5777 1.54131 12.1213 1.69555C11.6666 1.84918 11.1733 1.60587 11.0184 1.1516C10.8636 0.697334 11.1057 0.203434 11.5597 0.0474787Z" fill="#0B0B0B"/>
<path d="M0.563781 11.2503C0.864652 11.1368 1.20351 11.1984 1.44519 11.4104C1.68688 11.6225 1.79201 11.9505 1.71868 12.2634C1.64535 12.5764 1.40543 12.8236 1.09476 12.9062C0.646427 13.0254 0.18339 12.7723 0.0417458 12.3306C-0.0998367 11.889 0.129722 11.4139 0.563781 11.2503Z" fill="#0B0B0B"/>
<path d="M4.69106 4.15397C5.15324 4.06116 5.60507 4.35378 5.70946 4.81338C5.81386 5.27304 5.53271 5.73202 5.07574 5.84792C4.76978 5.92553 4.44582 5.83113 4.22943 5.6013C4.0131 5.37153 3.93836 5.04253 4.03424 4.74183C4.13012 4.44113 4.38155 4.21614 4.69106 4.15397Z" fill="#0B0B0B"/>
<path d="M4.816 26.3259C5.26819 26.1716 5.76009 26.412 5.91625 26.8635C6.07242 27.3151 5.83403 27.8078 5.38313 27.9658C4.92952 28.1247 4.43316 27.8847 4.27608 27.4305C4.11899 26.9764 4.36111 26.4811 4.816 26.3259Z" fill="#0B0B0B"/>
<path d="M10.0158 5.38037C10.3433 5.22839 10.7322 5.36756 10.889 5.69283C11.0458 6.01809 10.9123 6.4089 10.5893 6.57037C10.3762 6.67695 10.1221 6.66048 9.92445 6.52725C9.72687 6.39402 9.61635 6.16474 9.63522 5.92719C9.65415 5.68964 9.79959 5.4807 10.0158 5.38037Z" fill="#0B0B0B"/>
<path d="M9.99876 25.3481C10.3239 25.1852 10.7197 25.3162 10.8834 25.6409C11.0471 25.9656 10.9171 26.3615 10.5927 26.5261C10.2672 26.6912 9.86949 26.5606 9.70518 26.2347C9.54093 25.9089 9.67246 25.5116 9.99876 25.3481Z" fill="#0B0B0B"/>
<path d="M5.7912 21.1235C6.00973 21.0219 6.26637 21.0479 6.46009 21.1912C6.65387 21.3346 6.75373 21.5724 6.72046 21.8111C6.6872 22.0497 6.52607 22.2511 6.3005 22.336C5.96936 22.4606 5.59895 22.3011 5.46197 21.975C5.32498 21.6488 5.47036 21.2728 5.7912 21.1235Z" fill="#0B0B0B"/>
<path d="M5.78249 9.60727C5.99961 9.50203 6.25704 9.52451 6.45266 9.66583C6.64828 9.80714 6.75047 10.0444 6.71873 10.2836C6.68706 10.5228 6.52654 10.7253 6.30085 10.8107C5.97271 10.935 5.60488 10.7791 5.46605 10.4569C5.32729 10.1346 5.46667 9.76022 5.78249 9.60727Z" fill="#0B0B0B"/>
<path d="M4.26523 15.3583C4.48125 15.2641 4.73127 15.2935 4.91959 15.4351C5.10786 15.5767 5.20539 15.8087 5.17476 16.0424C5.14413 16.276 4.99011 16.475 4.77164 16.5633C4.44008 16.6974 4.06244 16.5402 3.92392 16.2106C3.7854 15.881 3.93746 15.5012 4.26523 15.3583Z" fill="#0B0B0B"/>
<path d="M41.9286 10.56C42.9686 10.56 43.8966 10.776 44.7126 11.208C45.5446 11.64 46.1926 12.28 46.6566 13.128C47.1206 13.976 47.3526 15 47.3526 16.2V24H44.6406V16.608C44.6406 15.424 44.3446 14.52 43.7526 13.896C43.1606 13.256 42.3526 12.936 41.3286 12.936C40.3046 12.936 39.4886 13.256 38.8806 13.896C38.2886 14.52 37.9926 15.424 37.9926 16.608V24H35.2566V10.776H37.9926V12.288C38.4406 11.744 39.0086 11.32 39.6966 11.016C40.4006 10.712 41.1446 10.56 41.9286 10.56Z" fill="black"/>
<path d="M62.8186 10.776V24H60.0826V22.44C59.6506 22.984 59.0826 23.416 58.3786 23.736C57.6906 24.04 56.9546 24.192 56.1706 24.192C55.1306 24.192 54.1946 23.976 53.3626 23.544C52.5466 23.112 51.8986 22.472 51.4186 21.624C50.9546 20.776 50.7226 19.752 50.7226 18.552V10.776H53.4346V18.144C53.4346 19.328 53.7306 20.24 54.3226 20.88C54.9146 21.504 55.7226 21.816 56.7466 21.816C57.7706 21.816 58.5786 21.504 59.1706 20.88C59.7786 20.24 60.0826 19.328 60.0826 18.144V10.776H62.8186Z" fill="black"/>
<path d="M82.4365 10.56C83.4765 10.56 84.4045 10.776 85.2205 11.208C86.0525 11.64 86.7005 12.28 87.1645 13.128C87.6445 13.976 87.8845 15 87.8845 16.2V24H85.1725V16.608C85.1725 15.424 84.8765 14.52 84.2845 13.896C83.6925 13.256 82.8845 12.936 81.8605 12.936C80.8365 12.936 80.0205 13.256 79.4125 13.896C78.8205 14.52 78.5245 15.424 78.5245 16.608V24H75.8125V16.608C75.8125 15.424 75.5165 14.52 74.9245 13.896C74.3325 13.256 73.5245 12.936 72.5005 12.936C71.4765 12.936 70.6605 13.256 70.0525 13.896C69.4605 14.52 69.1645 15.424 69.1645 16.608V24H66.4285V10.776H69.1645V12.288C69.6125 11.744 70.1805 11.32 70.8685 11.016C71.5565 10.712 72.2925 10.56 73.0765 10.56C74.1325 10.56 75.0765 10.784 75.9085 11.232C76.7405 11.68 77.3805 12.328 77.8285 13.176C78.2285 12.376 78.8525 11.744 79.7005 11.28C80.5485 10.8 81.4605 10.56 82.4365 10.56Z" fill="black"/>
<path d="M90.454 17.328C90.454 16 90.726 14.824 91.27 13.8C91.83 12.776 92.582 11.984 93.526 11.424C94.486 10.848 95.542 10.56 96.694 10.56C97.734 10.56 98.638 10.768 99.406 11.184C100.19 11.584 100.814 12.088 101.278 12.696V10.776H104.038V24H101.278V22.032C100.814 22.656 100.182 23.176 99.382 23.592C98.582 24.008 97.67 24.216 96.646 24.216C95.51 24.216 94.47 23.928 93.526 23.352C92.582 22.76 91.83 21.944 91.27 20.904C90.726 19.848 90.454 18.656 90.454 17.328ZM101.278 17.376C101.278 16.464 101.086 15.672 100.702 15C100.334 14.328 99.846 13.816 99.238 13.464C98.63 13.112 97.974 12.936 97.27 12.936C96.566 12.936 95.91 13.112 95.302 13.464C94.694 13.8 94.198 14.304 93.814 14.976C93.446 15.632 93.262 16.416 93.262 17.328C93.262 18.24 93.446 19.04 93.814 19.728C94.198 20.416 94.694 20.944 95.302 21.312C95.926 21.664 96.582 21.84 97.27 21.84C97.974 21.84 98.63 21.664 99.238 21.312C99.846 20.96 100.334 20.448 100.702 19.776C101.086 19.088 101.278 18.288 101.278 17.376Z" fill="black"/>
</svg>
